<svg height="512" viewBox="0 0 64 64" width="512" xmlns="http://www.w3.org/2000/svg"><g id="_15_Messenger" data-name="15 Messenger"><path d="m3 7.5v40.306h8.7v8.694h1l7.758-8.694h40.542v-40.306zm12.5 24.124a3.971 3.971 0 1 1 4-3.971 3.986 3.986 0 0 1 -4 3.971zm16.5 0a3.971 3.971 0 1 1 4-3.971 3.986 3.986 0 0 1 -4 3.971zm16.5 0a3.971 3.971 0 1 1 4-3.971 3.986 3.986 0 0 1 -4 3.971z" fill="#4370ff"/><path d="m38 27.653a6 6 0 1 0 -6 5.971 5.992 5.992 0 0 0 6-5.971zm-8 0a2 2 0 1 1 2 1.971 1.988 1.988 0 0 1 -2-1.971z"/><path d="m1 5.5v4h58v36.306h-39.438l-5.862 6.569v-6.569h-8.7v-32.306h-4v36.306h8.7v8.694h3.9l7.757-8.694h41.643v-44.306z"/><path d="m21.5 27.653a6 6 0 1 0 -6 5.971 5.992 5.992 0 0 0 6-5.971zm-8 0a2 2 0 1 1 2 1.971 1.988 1.988 0 0 1 -2-1.971z"/><path d="m54.5 27.653a6 6 0 1 0 -6 5.971 5.992 5.992 0 0 0 6-5.971zm-8 0a2 2 0 1 1 2 1.971 1.988 1.988 0 0 1 -2-1.971z"/></g></svg>